<?xml version="1.0" standalone="no"?>
<!DOCTYPE svg PUBLIC "-//W3C//DTD SVG 20010904//EN"
 "http://www.w3.org/TR/2001/REC-SVG-20010904/DTD/svg10.dtd">
<svg version="1.0" xmlns="http://www.w3.org/2000/svg"
 width="557.000000pt" height="557.000000pt" viewBox="0 0 557.000000 557.000000"
 preserveAspectRatio="xMidYMid meet">

<g transform="translate(0.000000,557.000000) scale(0.100000,-0.100000)"
fill="#000000" stroke="none">
<path d="M4185 4055 c-464 -97 -1004 -459 -1595 -1070 -84 -87 -114 -120 -265
-290 -249 -279 -605 -772 -899 -1243 -32 -51 -60 -91 -63 -89 -2 3 18 47 44
98 56 109 60 118 45 104 -14 -13 -192 -360 -192 -374 0 -6 4 -11 9 -11 10 0
19 13 151 220 82 128 243 371 353 530 78 114 138 193 321 430 111 142 143 183
171 214 6 6 44 49 85 96 221 250 297 330 526 550 143 137 316 277 558 450 126
91 192 129 347 204 245 118 438 170 609 164 76 -3 116 -9 144 -23 144 -70 100
-306 -127 -677 -12 -20 -41 -67 -64 -105 -23 -37 -68 -106 -101 -153 -34 -47
-83 -117 -111 -157 -28 -39 -51 -78 -51 -87 0 -8 -6 -19 -14 -23 -24 -13 -206
-264 -200 -275 9 -14 32 11 114 127 94 134 140 198 220 305 34 47 69 99 76
117 7 17 17 33 21 35 22 9 184 274 265 433 83 163 110 322 69 412 -49 108
-206 138 -446 88z"/>
<path d="M2150 3723 c-60 -12 -34 -20 52 -16 104 5 144 -8 182 -60 17 -23 20
-42 19 -115 -1 -74 -7 -105 -41 -202 -44 -129 -73 -204 -103 -269 -11 -24 -18
-46 -15 -48 5 -6 45 78 80 167 10 25 24 59 30 75 7 17 25 70 40 119 23 74 27
102 24 175 -3 94 -17 123 -73 156 -30 18 -144 29 -195 18z"/>
<path d="M2045 3691 c-67 -24 -295 -135 -320 -156 -27 -22 -20 -19 132 56 72
36 157 74 187 83 31 10 56 22 56 27 0 11 5 12 -55 -10z"/>
<path d="M1675 3510 c-3 -5 -2 -10 4 -10 5 0 13 5 16 10 3 6 2 10 -4 10 -5 0
-13 -4 -16 -10z"/>
<path d="M1645 3490 c-3 -5 -1 -10 4 -10 6 0 11 5 11 10 0 6 -2 10 -4 10 -3 0
-8 -4 -11 -10z"/>
<path d="M1535 3420 c-16 -11 -25 -20 -20 -20 10 0 64 39 55 40 -3 0 -18 -9
-35 -20z"/>
<path d="M2197 2923 c-21 -41 -36 -77 -33 -80 2 -3 21 30 41 72 20 42 35 79
33 81 -2 2 -21 -31 -41 -73z"/>
<path d="M2140 2809 c0 -5 5 -7 10 -4 6 3 10 8 10 11 0 2 -4 4 -10 4 -5 0 -10
-5 -10 -11z"/>
<path d="M2127 2783 c-4 -3 -7 -11 -7 -17 0 -6 5 -5 12 2 6 6 9 14 7 17 -3 3
-9 2 -12 -2z"/>
<path d="M2097 2715 c-9 -19 -15 -35 -12 -35 7 0 37 61 33 66 -3 2 -12 -12
-21 -31z"/>
<path d="M559 2573 c-13 -16 -12 -17 4 -4 9 7 17 15 17 17 0 8 -8 3 -21 -13z"/>
<path d="M2027 2583 c-4 -3 -7 -11 -7 -17 0 -6 5 -5 12 2 6 6 9 14 7 17 -3 3
-9 2 -12 -2z"/>
<path d="M508 2518 c-15 -18 -25 -35 -22 -37 4 -5 27 21 45 52 15 26 6 20 -23
-15z"/>
<path d="M3812 2478 c-109 -149 -172 -239 -172 -247 0 -5 -4 -11 -9 -13 -8 -3
-70 -91 -197 -280 -86 -128 -207 -364 -234 -457 -28 -95 -25 -196 6 -238 28
-38 78 -71 128 -84 59 -16 245 -5 349 20 100 24 318 103 350 127 22 16 22 16
-8 11 -16 -3 -85 -21 -153 -40 -209 -61 -308 -80 -417 -80 -80 0 -110 4 -147
21 -67 29 -83 60 -82 152 1 120 54 253 196 487 37 61 68 114 68 117 0 3 42 64
93 136 174 245 197 279 197 288 0 4 12 19 26 33 29 27 44 51 49 80 6 29 -1 24
-43 -33z"/>
<path d="M426 2411 c-25 -32 -51 -70 -57 -85 -7 -14 -15 -26 -19 -26 -9 0 -32
-51 -26 -57 2 -3 17 17 32 44 15 26 31 50 35 53 3 3 12 16 19 30 7 14 26 42
42 63 16 20 27 37 24 37 -2 0 -25 -26 -50 -59z"/>
<path d="M299 2204 c-26 -68 -19 -135 14 -133 9 0 9 2 0 6 -16 6 -17 96 -2
125 6 11 8 22 5 25 -3 3 -10 -7 -17 -23z"/>
<path d="M1540 1730 c-6 -11 -8 -20 -6 -20 3 0 10 9 16 20 6 11 8 20 6 20 -3
0 -10 -9 -16 -20z"/>
<path d="M1511 1679 c-7 -12 -10 -23 -8 -26 3 -3 11 5 17 17 6 12 10 23 8 25
-2 2 -10 -5 -17 -16z"/>
<path d="M1467 1603 c-4 -3 -7 -11 -7 -17 0 -6 5 -5 12 2 6 6 9 14 7 17 -3 3
-9 2 -12 -2z"/>
<path d="M4123 1356 c-18 -6 -35 -15 -39 -19 -13 -13 13 -7 57 13 47 21 35 25
-18 6z"/>
</g>
</svg>
